<svg width="48" height="632" viewBox="0 0 48 632" fill="none" xmlns="http://www.w3.org/2000/svg">
<path fill-rule="evenodd" clip-rule="evenodd" d="M18.9346 28.9553L18.4659 5.53412C18.4659 4.80734 18.609 4.08771 18.8871 3.41629C19.1653 2.74487 19.5729 2.13477 20.0868 1.62088C20.6007 1.10699 21.2108 0.699341 21.8822 0.421234C22.5536 0.143127 23.2732 0 24 0C24.7268 0 25.4464 0.143127 26.1178 0.421234C26.7893 0.699341 27.3993 1.10699 27.9132 1.62088C28.4271 2.13477 28.8347 2.74487 29.1129 3.41629C29.391 4.08771 29.5341 4.80734 29.5341 5.53412L29.0654 28.9525L47.1727 47.0598C47.7035 47.5878 48 48.3077 48 49.056V51.2499C48 51.4906 47.9385 51.7274 47.8212 51.9376C47.7039 52.1478 47.5348 52.3246 47.3298 52.451C47.125 52.5776 46.8912 52.6495 46.6508 52.6602C46.4103 52.6708 46.171 52.6198 45.9558 52.512L28.7661 43.9172L28.3341 65.5002L33.4503 67.7732C34.8452 68.3915 34.4019 70.4753 32.8772 70.4753H15.1228C13.5981 70.4753 13.1576 68.3915 14.5497 67.7732L19.6659 65.5002L19.2339 43.9172L2.04419 52.512C1.82898 52.6198 1.58972 52.6708 1.34924 52.6602C1.10877 52.6495 0.875001 52.5776 0.670167 52.451C0.465211 52.3246 0.296144 52.1478 0.178834 51.9376C0.0615248 51.7274 1.37107e-06 51.4906 1.37107e-06 51.2499V49.056C-0.00036484 48.6856 0.0726332 48.3188 0.214601 47.9767C0.356569 47.6346 0.564821 47.3239 0.827272 47.0626L18.9346 28.9553ZM29 632V622.286H19V632H29ZM29 602.857V583.429H19V602.857H29ZM29 564V544.571H19V564H29ZM29 525.143V505.714H19V525.143H29ZM29 486.286V466.857H19V486.286H29ZM29 447.429V428H19V447.429H29ZM29 408.571V389.143H19V408.571H29ZM29 369.714V350.286H19V369.714H29ZM29 330.857V311.429H19V330.857H29ZM29 292V272.571H19V292H29ZM29 253.143V233.714H19V253.143H29ZM29 214.286V194.857H19V214.286H29ZM29 175.429V156H19V175.429H29ZM29 136.572V117.143H19V136.572H29ZM29 97.7144V88H19V97.7144H29Z" fill="black"/>
</svg>
