<svg width="628" height="48" viewBox="0 0 628 48" fill="none" xmlns="http://www.w3.org/2000/svg">
<path fill-rule="evenodd" clip-rule="evenodd" d="M598.52 18.9346L621.941 18.4659C622.668 18.4659 623.388 18.609 624.059 18.8871C624.73 19.1653 625.341 19.5729 625.854 20.0868C626.368 20.6007 626.776 21.2108 627.054 21.8822C627.332 22.5536 627.475 23.2733 627.475 24C627.475 24.7268 627.332 25.4464 627.054 26.1178C626.776 26.7892 626.368 27.3993 625.854 27.9132C625.341 28.4271 624.73 28.8347 624.059 29.1129C623.388 29.391 622.668 29.5341 621.941 29.5341L598.523 29.0654L580.416 47.1727C579.888 47.7035 579.168 48 578.419 48H576.225C575.985 48 575.748 47.9384 575.538 47.8211C575.327 47.7039 575.151 47.5347 575.024 47.3299C574.898 47.125 574.826 46.8913 574.815 46.6508C574.804 46.4102 574.855 46.171 574.963 45.9558L583.558 28.7661L561.975 28.3341L559.702 33.4504C559.084 34.8452 557 34.4019 557 32.8772V15.1228C557 13.5981 559.084 13.1576 559.702 14.5497L561.975 19.6659L583.558 19.2339L574.963 2.04424C574.855 1.829 574.804 1.58976 574.815 1.34925C574.826 1.10874 574.898 0.874955 575.024 0.670106C575.151 0.465257 575.327 0.296159 575.538 0.178872C575.748 0.0615855 575.985 8.68075e-06 576.225 1.05136e-06H578.419C578.79 -0.000319383 579.156 0.07261 579.499 0.214593C579.841 0.356568 580.151 0.564797 580.413 0.827294L598.52 18.9346ZM0 28H9.71428V18H0V28ZM29.1429 28H48.5714V18H29.1429V28ZM68 28H87.4286V18H68V28ZM106.857 28H126.286V18H106.857V28ZM145.714 28H165.143V18H145.714V28ZM184.571 28H204V18H184.571V28ZM223.429 28H242.857V18H223.429V28ZM262.286 28H281.714V18H262.286V28ZM301.143 28H320.571V18H301.143V28ZM340 28H359.429V18H340V28ZM378.857 28H398.286V18H378.857V28ZM417.714 28H437.143V18H417.714V28ZM456.571 28H476V18H456.571V28ZM495.428 28H514.857V18H495.428V28ZM534.286 28H544V18H534.286V28Z" fill="black"/>
</svg>
